<?xml version="1.0" standalone="no"?>
<!DOCTYPE svg PUBLIC "-//W3C//DTD SVG 1.1//EN" "http://www.w3.org/Graphics/SVG/1.1/DTD/svg11.dtd" >
<!--
2013-9-30: Created.
-->
<svg>
<metadata>
Created by iconfont
</metadata>
<defs>

<font id="iconfont" horiz-adv-x="1024" >
  <font-face
    font-family="iconfont"
    font-weight="500"
    font-stretch="normal"
    units-per-em="1024"
    ascent="896"
    descent="-128"
  />
    <missing-glyph />
    
    <glyph glyph-name="note" unicode="&#58922;" d="M761.897002-91.732869 119.457184-91.732869l0 698.30415 392.44202 0 56.491619 54.420447-1.444908 1.445932L119.457184 662.437659c-30.850635 0-55.864332-25.013697-55.864332-55.866379l0-698.30415c0-30.848589 25.013697-55.863309 55.864332-55.863309l642.439818 0c30.851659 0 55.865355 25.013697 55.865355 55.863309L817.762357 317.349133l-55.865355-53.328579L761.897002-91.732869zM958.541661 622.940087c-0.517793 30.523177-15.384385 59.954487-43.998073 87.36886-25.205055 24.196075-53.026704 36.416398-82.705654 36.416398-46.452985 0-80.331583-30.006408-89.553619-39.170115-13.06455-12.902868-383.356085-382.65205-383.356085-382.65205-2.892887-2.944052-5.02034-6.573719-6.083555-10.584056-10.038634-37.068244-60.310597-201.633277-60.801784-203.270567-2.591011-8.429996-0.273223-17.621333 5.919826-23.759123 4.472871-4.472871 10.420327-6.844895 16.501836-6.844895 2.428306 0 4.827959 0.353041 7.202029 1.087774 1.718131 0.601704 171.521468 55.483662 199.481264 63.830771 3.654226 1.091868 7.010671 3.082198 9.765411 5.783727 17.647939 17.401322 357.990371 352.479867 385.538797 380.928802C944.930665 561.45678 959.08606 592.007587 958.541661 622.940087zM876.326171 570.922363c-15.547091-16.039301-137.261177-136.306432-361.78172-357.473601l-17.185404-16.911158c-25.721825-7.964392-87.369883-27.767414-133.932362-42.827411 15.002692 49.53723 32.979112 109.384269 40.998763 137.698129 47.981804 47.898917 365.219006 364.646977 377.275599 376.538819 2.345418 2.345418 23.760147 22.912849 50.136887 22.912849 14.975063 0 29.40368-6.818289 44.053332-20.86726 17.510816-16.802688 26.542516-32.951483 26.78811-48.035016C902.949528 606.437228 894.083603 589.279453 876.326171 570.922363z"  horiz-adv-x="1024" />

    
    <glyph glyph-name="p" unicode="&#58905;" d="M915.377378 470.53627c-22.050517 52.174142-53.611386 99.025978-93.805303 139.252494-40.195835 40.228434-87.012195 71.81615-139.147985 93.885843-53.993948 22.85591-111.333154 34.444944-170.42409 34.444944-59.090936 0-116.429184-11.589034-170.42409-34.444944-52.13579-22.069693-98.95215-53.657408-139.147985-93.885843-40.194876-40.226517-71.755745-87.078352-93.805303-139.252494C85.788764 416.505888 74.210277 359.129288 74.210277 299.999041c0-59.129288 11.578487-116.505888 34.412345-170.53627 22.049558-52.174142 53.610427-99.02406 93.805303-139.251536 40.195835-40.227476 87.012195-71.815191 139.147985-93.885843 53.993948-22.85591 111.332195-34.444944 170.423131-34.444944 59.091895 0 116.429184 11.589034 170.42409 34.444944 52.13579 22.069693 98.95215 53.657408 139.147985 93.885843 40.193918 40.227476 71.755745 87.078352 93.805303 139.251536 22.834816 54.030382 34.412345 111.406981 34.412345 170.53627C949.789723 359.129288 938.212195 416.505888 915.377378 470.53627zM861.502322 152.231431c-19.10412-45.203655-46.458727-85.805064-81.304449-120.679551-3.347176-3.350052-6.763386-6.60806-10.215071-9.819086-25.214562 55.121498-123.401588 165.325184-258.993378 165.325184-141.205573 0-235.25633-106.140285-257.986637-164.380764-3.104599 2.909004-6.182352 5.852524-9.201618 8.874667-34.845723 34.873528-62.20033 75.475895-81.304449 120.679551-19.773363 46.785678-29.798592 96.502412-29.798592 147.76761 0 51.266157 10.026187 100.981933 29.798592 147.768569 19.10412 45.203655 46.458727 85.806022 81.304449 120.680509 34.843805 34.872569 75.410697 62.247311 120.574082 81.365813 46.740614 19.785828 96.408449 29.817768 147.62379 29.817768s100.883176-10.03194 147.62379-29.817768c45.163386-19.117543 85.730277-46.493243 120.574082-81.365813 34.845723-34.873528 62.20033-75.476854 81.304449-120.680509 19.773363-46.786637 29.798592-96.502412 29.798592-147.768569C891.301873 248.733843 881.275685 199.017109 861.502322 152.231431zM512.488989 507.089618c-75.361798 0-145.458816-64.882097-145.458816-144.92764 0-80.033079 70.097019-144.929558 145.458816-144.929558 75.356045 0 142.453933 64.897438 142.453933 144.929558C654.942921 442.207521 587.845034 507.089618 512.488989 507.089618z"  horiz-adv-x="1024" />

    
    <glyph glyph-name="contextphone" unicode="&#59053;" d="M717.72292 745.209828 310.008055 745.209828c-48.50676 0-87.971587-39.534412-87.971587-88.1302l0-48.489364 0-583.991638 0-78.821183c0-48.52518 39.463804-87.986937 87.971587-87.986937l407.714865 0c48.594765 0 88.1302 39.461757 88.1302 87.986937l0 78.821183L805.85312 608.590264l0 48.489364C805.85312 705.674393 766.317685 745.209828 717.72292 745.209828M276.401656 554.227122l475.086276 0L751.487931 78.961768 276.401656 78.961768 276.401656 554.227122zM751.487931-54.222557c0-18.545378-15.148002-33.622772-33.765011-33.622772L310.008055-87.845329c-18.527982 0-33.606399 15.077394-33.606399 33.622772l0 78.821183 475.086276 0L751.487931-54.222557zM276.401656 608.590264l0 48.489364c0 18.61701 15.078417 33.766035 33.606399 33.766035l407.714865 0c18.61701 0 33.765011-15.149025 33.765011-33.766035l0-48.489364L276.401656 608.590264zM513.963213-81.085368c27.323299 0 49.480948 22.155603 49.480948 49.514717 0 27.324322-22.156626 49.479925-49.480948 49.479925-27.359115 0-49.498344-22.154579-49.498344-49.479925C464.464869-58.929766 486.603075-81.085368 513.963213-81.085368M546.667056 658.248244l-65.426105 0c-6.813173 0-12.33391-5.52176-12.33391-12.317537 0-6.830569 5.520737-12.352329 12.33391-12.352329l65.426105 0c6.795776 0 12.351306 5.52176 12.351306 12.352329C559.018362 652.726483 553.461809 658.248244 546.667056 658.248244"  horiz-adv-x="1024" />

    
    <glyph glyph-name="network" unicode="&#58940;" d="M442.997951 385.337461 107.386264 385.337461c-23.772426 0-41.951461-18.180058-41.951461-41.952484l0-279.675724c0-23.77038 18.179035-41.950438 41.951461-41.950438l335.611687 0c23.772426 0 41.951461 18.180058 41.951461 41.950438L484.949412 343.383954C484.949412 367.157403 466.770378 385.337461 442.997951 385.337461zM107.386264 357.368456l335.611687 0c8.390088 0 13.984503-5.594415 13.984503-13.984503l0-209.756281-13.984503 0L442.997951 329.401498 107.386264 329.401498l0-195.772802-13.983479 0L93.402785 343.383954C93.403808 351.775065 98.9972 357.368456 107.386264 357.368456zM415.02997 133.628696 135.354246 133.628696 135.354246 301.433516l279.675724 0L415.02997 133.628696zM442.997951 49.725774 107.386264 49.725774c-8.389064 0-13.983479 5.593392-13.983479 13.983479l0 41.951461 13.983479 0 335.611687 0 13.984503 0 0-41.951461C456.982454 55.319166 451.388039 49.725774 442.997951 49.725774zM918.446477 748.915084 582.835813 748.915084c-23.771403 0-41.952484-18.179035-41.952484-41.951461l0-279.675724c0-23.772426 18.181081-41.951461 41.952484-41.951461l335.610664 0c23.771403 0 41.951461 18.179035 41.951461 41.951461L960.397938 706.963623C960.397938 730.736049 942.218904 748.915084 918.446477 748.915084zM582.835813 720.947102l335.610664 0c8.390088 0 13.983479-5.593392 13.983479-13.983479l0-209.757305-13.983479 0L918.446477 692.980143 582.835813 692.980143l0-195.773825-13.984503 0 0 209.757305C568.851311 715.35371 574.445726 720.947102 582.835813 720.947102zM890.480542 497.206318 610.804818 497.206318 610.804818 665.012162l279.676747 0L890.481565 497.206318zM918.446477 413.305443 582.835813 413.305443c-8.390088 0-13.984503 5.593392-13.984503 13.983479l0 41.950438 13.984503 0 335.610664 0 13.983479 0 0-41.950438C932.429956 418.897811 926.837588 413.305443 918.446477 413.305443zM247.225149 540.556639l0-127.251196 27.967982 0L275.193131 540.556639c19.577894 5.594415 34.95921 20.976754 40.552601 40.553625l197.170638 0 0 27.967982-197.170638 0c-5.594415 23.772426-27.967982 41.951461-54.537104 41.951461-30.764678 0-55.93494-25.170263-55.93494-55.93494C205.273688 568.52462 223.4517 547.54889 247.225149 540.556639zM261.208629 623.061724c15.381315 0 27.966958-12.585643 27.966958-27.967982 0-15.381315-12.585643-27.966958-27.966958-27.966958-15.382339 0-27.967982 12.585643-27.967982 27.966958C233.240647 610.475058 245.827313 623.061724 261.208629 623.061724zM792.592095 188.1658l0 169.20368-27.967982 0 0-169.20368c-19.576871-5.594415-34.958186-20.97573-40.551578-40.553625L512.916371 147.612175l0-27.967982 211.156164 0c5.593392-23.77038 27.965935-41.950438 54.536081-41.950438 30.763654 0 55.935963 25.171286 55.935963 55.93494C834.544579 160.198841 816.364521 181.173548 792.592095 188.1658zM778.608615 105.660714c-15.380292 0-27.965935 12.585643-27.965935 27.967982s12.585643 27.967982 27.965935 27.967982c15.381315 0 27.967982-12.585643 27.967982-27.967982S793.989931 105.660714 778.608615 105.660714z"  horiz-adv-x="1024" />

    
    <glyph glyph-name="note1" unicode="&#58891;" d="M761.4976-25.6 262.5024-25.6C174.2336-25.6 102.4 41.6768 102.4 124.5184L102.4 643.4816C102.4 726.2208 174.2336 793.6 262.5024 793.6L761.4976 793.6C849.8176 793.6 921.6 726.2208 921.6 643.4816L921.6 124.5184C921.6 41.6768 849.8176-25.6 761.4976-25.6L761.4976-25.6ZM262.5024 736.3072C205.824 736.3072 159.6928 694.6816 159.6928 643.4816L159.6928 124.5184C159.6928 73.3184 205.824 31.6928 262.5024 31.6928L761.4976 31.6928C818.176 31.6928 864.3584 73.3184 864.3584 124.5184L864.3584 643.4816C864.3584 694.6816 818.2272 736.3072 761.4976 736.3072L262.5024 736.3072 262.5024 736.3072ZM235.1616 412.6208 292.4544 412.6208 292.4544 355.328 235.1616 355.328 235.1616 412.6208 235.1616 412.6208ZM373.6064 412.6208 771.6864 412.6208 771.6864 355.328 373.6064 355.328 373.6064 412.6208 373.6064 412.6208ZM235.1616 543.3856 771.6864 543.3856 771.6864 486.0928 235.1616 486.0928 235.1616 543.3856 235.1616 543.3856ZM373.6064 281.8048 771.6864 281.8048 771.6864 224.5632 373.6064 224.5632 373.6064 281.8048 373.6064 281.8048ZM235.1616 281.8048 292.4544 281.8048 292.4544 224.5632 235.1616 224.5632 235.1616 281.8048 235.1616 281.8048Z"  horiz-adv-x="1024" />

    
    <glyph glyph-name="crab" unicode="&#58884;" d="M76.433 42.644c-20.143 0-36.47 16.33-36.47 36.473 0 80.105 65.168 145.274 145.274 145.274 20.143 0 36.473-16.327 36.473-36.473 0-20.143-16.327-36.473-36.473-36.473-39.883 0-72.331-32.448-72.331-72.331-0.003-20.14-16.333-36.47-36.473-36.47zM947.572 42.644c-20.143 0-36.473 16.33-36.473 36.473 0 39.883-32.448 72.331-72.331 72.331-20.143 0-36.473 16.327-36.473 36.473 0 20.143 16.327 36.473 36.473 36.473 80.105 0 145.274-65.168 145.274-145.274 0-20.145-16.327-36.475-36.47-36.475zM678.010 454.758c109.743 0 198.707-88.964 198.707-198.707s-88.964-198.707-198.707-198.707h-332.017c-109.743 0-198.707 88.964-198.707 198.707s88.964 198.707 198.707 198.707h332.017zM350.989 521.413h50.377v-101.87h-50.377zM421.454 533.151c0-25.004-20.272-45.276-45.276-45.276s-45.274 20.269-45.274 45.276v35.215c0 25.007 20.269 45.276 45.274 45.276s45.276-20.269 45.276-45.276v-35.215zM622.639 521.413h50.377v-101.87h-50.377zM602.548 533.151c0-25.004 20.272-45.276 45.276-45.276 25.004 0 45.274 20.269 45.274 45.276v35.215c0 25.007-20.269 45.276-45.274 45.276s-45.276-20.269-45.276-45.276v-35.215zM852.772 288.75c-0.015-0-0.032-0-0.049-0-10.055 0-19.157 4.082-25.739 10.68-14.244 14.244-14.244 37.335-0.001 51.578 39.556 39.559 39.556 103.918 0 143.473-14.243 14.243-14.243 37.337 0 51.578 14.241 14.243 37.337 14.243 51.578 0 67.996-67.996 67.996-178.636 0-246.629-6.582-6.599-15.684-10.681-25.74-10.681-0.017 0-0.035 0-0.052 0zM960.998 579.289c35.36-35.363 35.36-92.694 0-128.057-35.363-35.363-92.697-35.363-128.060 0.003l-64.026 64.026c-70.726 70.724-70.726 185.388 0 256.115l192.086-192.086zM811.881 546.263c-17.109-46.997 7.124-98.957 54.116-116.063 46.997-17.104 98.96 7.127 116.063 54.121l30.972 85.091c34.202 93.985-14.257 197.908-108.24 232.118l-92.912-255.267zM171.231 288.75c-0.015-0-0.032-0-0.049-0-10.055 0-19.157 4.082-25.739 10.68-67.996 67.996-67.996 178.634-0.001 246.629 14.243 14.243 37.337 14.243 51.578 0 14.243-14.243 14.243-37.334 0-51.578-39.556-39.556-39.556-103.918 0-143.473 14.243-14.243 14.243-37.334 0-51.578-6.582-6.599-15.684-10.681-25.74-10.681-0.017 0-0.035 0-0.052 0zM63.005 579.289c-35.36-35.363-35.36-92.694 0-128.057s92.697-35.363 128.060 0.003l64.026 64.026c70.726 70.724 70.726 185.388 0 256.115l-192.086-192.086zM212.122 546.263c17.109-46.997-7.124-98.957-54.116-116.063-46.997-17.104-98.957 7.127-116.063 54.121l-30.975 85.091c-34.199 93.985 14.26 197.908 108.245 232.118l92.909-255.267zM876.717 256.051c0-109.743-88.964-198.707-198.707-198.707h-332.017c-109.743 0-198.707 88.964-198.707 198.707h729.43zM881.834-33.53c-20.143 0-36.473 16.33-36.473 36.473 0 39.883-32.448 72.331-72.331 72.331-20.143 0-36.473 16.327-36.473 36.473 0 20.143 16.33 36.473 36.473 36.473 80.105 0 145.277-65.171 145.277-145.274 0-20.145-16.327-36.475-36.473-36.475zM142.169-33.53c-20.143 0-36.473 16.33-36.473 36.473 0 80.105 65.171 145.274 145.277 145.274 20.143 0 36.47-16.33 36.47-36.473s-16.33-36.473-36.47-36.473c-39.883 0-72.331-32.448-72.331-72.331-0.003-20.14-16.33-36.47-36.473-36.47zM512.001 220.11c-36.558 0-66.195-29.64-66.195-66.198v-96.568h132.393v96.568c0 36.558-29.64 66.198-66.198 66.198z"  horiz-adv-x="1024" />

    
    <glyph glyph-name="Containertruck_alar" unicode="&#58899;" d="M123.707 714.852h154.251v-254.157H123.707z m-20.78 0h-9.589c-15.893 0-28.773-12.882-28.773-28.772v-196.613c0-15.89 12.88-28.771 28.773-28.771h9.59V714.852z m203.007 0h-7.193v-254.157h7.193c15.89 0 28.77 12.88 28.77 28.771V686.08c0 15.89-12.88 28.772-28.77 28.772zM123.707 436.718h154.251v-254.16H123.707z m-20.78 0h-9.589c-15.893 0-28.773-12.883-28.773-28.775v-196.612c0-15.89 12.88-28.773 28.773-28.773h9.59v254.16z m203.007 0h-7.193v-254.16h7.193c15.89 0 28.77 12.882 28.77 28.773V407.943c0 15.893-12.88 28.775-28.77 28.775z m62.341-315.7V578.183c0 13.682 11.093 24.776 24.776 24.776 13.687 0 24.777-11.094 24.777-24.776v-457.167M399.844 121.017H178.456c-9.932 0-17.986 8.054-17.986 17.984 0 9.932 8.054 17.983 17.986 17.983h221.388m201.011-4.996h36.221c1.624 0 14.93-8.05 14.93-17.983 0-9.93-13.306-17.98-14.93-17.98h-36.22m-149.462 90.51s15.986 20.781 46.356 20.781V331.218l183.827 230.18h175.832v-177.43H654.401l-44.757-74.332v-127.078h-22.38s6.394-4.794 11.19-14.388h161.449v94.311s0 47.155 27.17 47.155h172.641v31.17s0 21.182-15.99 21.182h-52.747V602.96H670.386L451.394 333.614v-127.079zM791.87 200.142v63.341s-0.598 17.382 19.184 17.382h148.66v-128.877S909.36 275.47 791.87 200.142z m-279.332 9.992c-43.04 0-77.93-34.888-77.93-77.926 0-43.036 34.89-77.924 77.93-77.924 43.038 0 77.925 34.89 77.925 77.924 0 43.038-34.887 77.926-77.925 77.926z m0-117.489c-21.85 0-39.564 17.715-39.564 39.562 0 21.851 17.714 39.562 39.564 39.562s39.56-17.712 39.56-39.562c0-21.847-17.71-39.562-39.56-39.562zM862.604 210.134c-43.036 0-77.925-34.888-77.925-77.926 0-43.036 34.89-77.924 77.925-77.924 43.038 0 77.924 34.89 77.924 77.924 0 43.038-34.886 77.926-77.924 77.926z m0-117.489c-21.851 0-39.564 17.715-39.564 39.562 0 21.851 17.714 39.562 39.564 39.562 21.852 0 39.562-17.712 39.562-39.562 0-21.847-17.71-39.562-39.562-39.562z"  horiz-adv-x="1024" />

    
    <glyph glyph-name="Homephone" unicode="&#58997;" d="M666.83904 270.61248c33.96608 13.24032 70.59456 6.912 96.52224-12.01152l-22.0672-35.7376 98.95936 0.37888-35.36896 102.61504-18.1248-29.34784c-38.20544 24.75008-90.29632 32.83968-135.89504 15.0528-63.19104-24.63744-99.56352-88.34048-92.37504-152.76032h44.32896c-7.48544 46.73536 18.18624 93.94176 64.02048 111.81056zM810.12736 184.36096c7.46496-46.72512-18.19648-93.93152-64.02048-111.79008-31.24224-12.1856-65.67936-7.59808-92.14976 8.82688l19.93728 32.3072-106.41408 6.2464 45.02528-105.66656 18.88256 30.57664c38.1952-24.75008 85.06368-31.0272 130.67264-13.25056 63.1808 24.63744 99.56352 88.33024 92.37504 152.75008h-44.30848zM810.12736 184.36096v0.02048zM873.30816 523.50976l-86.31296 65.35168 0.34816 0.6656s-99.4304 78.77632-291.30752 78.57152c-191.86688 0.2048-291.30752-78.57152-291.30752-78.57152l0.3584-0.6656-86.3232-65.35168c-10.52672-7.9872-12.05248-24.55552-3.3792-37.00736l58.76736-85.80096c8.66304-12.41088 24.25856-15.99488 34.83648-8.04864l90.75712 70.06208c10.53696 7.99744 19.44576 24.55552 10.79296 37.0176l-10.58816 43.42784c82.0224 44.86144 126.96576 44.65664 196.07552 44.40064 69.16096 0.256 114.06336 0.4608 196.13696-44.40064l-10.57792-43.42784c-8.71424-12.46208 0.19456-29.02016 10.78272-37.0176l90.7776-70.06208c10.52672-7.94624 26.12224-4.36224 34.77504 8.04864l58.8288 85.80096c8.6528 12.45184 7.09632 29.00992-3.44064 37.00736zM703.13984 357.36576c5.20192 0 10.30144-0.34816 15.37024-0.77824l-87.6544 121.1904c0 23.3472-18.78016 42.28096-41.97376 42.28096H403.2c-23.1424 0-41.9328-18.93376-41.9328-42.28096l-81.7664-130.19136a20.7872 20.7872 0 0 1-5.82656-14.41792V307.2c-0.03072-0.70656-0.18432-1.37216-0.18432-2.0992v-86.97856c0-23.3472 18.76992-44.10368 41.92256-44.10368h208.73216c-0.03072 1.39264-0.2048 2.73408-0.2048 4.12672 0 98.97984 80.2304 179.22048 179.2 179.22048z m-302.31552 11.12064c0 35.03104 25.76384 63.2832 95.22176 63.2832 69.46816 0 99.93216-28.25216 99.93216-63.2832 0-35.0208-30.464-64.38912-99.93216-64.38912-69.45792 0-95.22176 29.35808-95.22176 64.38912z"  horiz-adv-x="1024" />

    
    <glyph glyph-name="truck" unicode="&#58831;" d="M87.872 734.336h538.176c11.904 0 22.4-10.432 22.4-22.4v-93.888h210.176c55.168 0 101.376-44.736 101.376-101.376v-344.32c0-20.928-17.92-38.784-38.784-38.784h-26.816a121.6 121.6 0 0 0-119.296-99.904 121.6 121.6 0 0 0-119.232 99.84h-244.48a121.6 121.6 0 0 0-119.296-99.84 121.6 121.6 0 0 0-119.296 99.84H86.4a22.912 22.912 0 0 0-22.4 22.4V712c1.472 11.904 11.904 22.4 23.872 22.4z m687.232-656c41.792 0 76.096 34.304 76.096 76.096 0 41.728-34.304 76.032-76.096 76.032-41.728 0-76.032-34.304-76.032-76.032 1.536-41.792 34.304-76.032 76.032-76.032z m-126.72 99.904h8.96a120 120 0 0 0 235.52 0h22.4V352.704h-266.88v-174.464z m0 219.2h266.88V515.2a56.64 56.64 0 0 1-56.64 56.64h-210.24V397.44z m-354.816-319.04c41.792 0 76.032 34.24 76.032 76.032 0 41.728-34.24 76.032-76.032 76.032-41.728 0-76.032-34.304-76.032-76.032 0-41.792 34.304-76.032 76.032-76.032z m-183.36 99.84h65.6a120 120 0 0 0 235.52 0h192.384V688.128h-493.44v-509.888z"  horiz-adv-x="1024" />

    
    <glyph glyph-name="system" unicode="&#58734;" d="M897.479111 896H126.520889C60.245333 896 0 835.754667 0 769.479111v-770.958222C0-73.784889 60.245333-128 126.520889-128h770.958222C969.784889-128 1024-67.754667 1024-1.479111V769.479111C1024 835.754667 969.784889 896 897.479111 896z m60.302222-897.479111c0-36.181333-30.151111-66.275556-66.275555-66.275556H126.520889c-36.181333 0-66.275556 30.151111-66.275556 66.275556V769.479111c0 36.181333 30.151111 66.275556 66.275556 66.275556h770.958222c36.181333 0 66.275556-30.151111 66.275556-66.275556v-770.958222h-6.030223zM222.890667 64.739556h578.218666c18.090667 0 30.151111-12.060444 30.151111-30.151112 0-18.033778-12.060444-30.094222-30.151111-30.094222H222.890667c-18.090667 0-30.151111 12.060444-30.151111 30.151111 0 12.060444 12.060444 30.151111 30.151111 30.151111zM512 124.984889c-6.030222 0-18.090667 0-24.120889 12.060444L331.320889 329.784889c-10.467556 17.180444-27.648 37.319111 5.404444 53.475555h145.408L481.848889 733.297778c0 18.090667 12.003556 30.151111 30.094222 30.151111 18.090667 5.973333 30.151111-12.060444 30.151111-30.151111l1.251556-350.094222H699.733333c29.127111-15.701333 5.006222-41.415111-7.054222-59.505778 0 0-174.648889-198.769778-180.679111-198.769778z"  horiz-adv-x="1024" />

    
    <glyph glyph-name="picker-computer" unicode="&#58917;" d="M954.181818 197.81818199999998h-884.363636V756.363636h884.363636z m-791.272727 93.090909h698.181818V663.272727h-698.181818zM465.454545 197.81818199999998h93.09091v-139.636364h-93.09091zM325.818182 104.72727299999997h372.363636v-93.090909H325.818182z"  horiz-adv-x="1024" />

    
    <glyph glyph-name="trustnote-" unicode="&#58889;" d="M930.096 377.768c0-224.111-185.823-409.934-420.182-409.934-224.112 0-409.935 185.823-409.935 409.934 0 234.36 185.823 420.183 409.935 420.183 234.359 0 420.182-185.823 420.182-420.183z m-621.091-22.25l133.274-137.933c3.308-3.423 8.782-3.52 12.185-0.171l292.313 287.68a4.26 4.26 0 0 1-0.006 6.087l-17.839 17.616c-1.731 1.709-4.572 1.818-6.401 0.294L454.967 306.188c-3.68-3.065-9.73-3.186-13.526-0.278l-108.009 82.782c-1.874 1.437-4.563 1.05-5.983-0.881l-18.878-25.687c-1.412-1.92-1.225-4.888 0.434-6.606z"  horiz-adv-x="1024" />

    
    <glyph glyph-name="trustnote-1" unicode="&#58890;" d="M926.664 379.016c0 234.736-186.122 420.857-420.857 420.857-224.471 0-410.592-186.122-410.592-420.857 0-224.471 186.122-410.592 410.592-410.592 234.736 0 420.857 186.121 420.857 410.592zM486.482 587.935h48.915c8.994 0 15.962-7.298 15.545-16.301l-12.446-268.842c-0.213-4.599-4.106-8.31-8.697-8.31h-37.718c-4.577 0-8.485 3.72-8.697 8.31l-12.446 268.842c-0.42 9.047 6.542 16.301 15.544 16.301z m24.458-423.876c-22.51 0-40.757 18.248-40.757 40.757s18.248 40.757 40.757 40.757c22.51 0 40.757-18.248 40.757-40.757s-18.248-40.757-40.757-40.757z"  horiz-adv-x="1024" />

    
    <glyph glyph-name="trustnote-2" unicode="&#58892;" d="M512.144 729.959c-190.985 0-345.811-154.825-345.811-345.811s154.825-345.811 345.811-345.811 345.811 154.825 345.811 345.811-154.826 345.811-345.811 345.811z m0 53.202c220.366 0 399.013-178.646 399.013-399.012S732.511-14.863 512.144-14.863c-220.366 0-399.012 178.646-399.012 399.012-0.001 220.365 178.646 399.012 399.012 399.012zM638.602 539.37L468.541 285.655l-90.297 76.062c-16.847 14.203-42.019 12.047-56.215-4.806-14.209-16.853-12.053-42.025 4.806-56.221l124.354-104.76c18.171-15.307 45.616-11.437 58.852 8.3l194.856 290.706c12.261 18.308 7.377 43.09-10.937 55.364-18.302 12.267-43.084 7.377-55.358-10.93z"  horiz-adv-x="1024" />

    
    <glyph glyph-name="truck1" unicode="&#58904;" d="M960.950857-64.024381c-34.57219 0-62.70781 28.769524-62.707809 64.024381 0 35.303619 28.135619 64.024381 62.707809 64.024381 34.523429 0 62.659048-28.769524 62.659048-64.024381 0-35.303619-28.135619-64.024381-62.659048-64.024381z m-668.525714 0c-34.523429 0-62.659048 28.769524-62.659048 64.024381 0 35.303619 28.135619 64.024381 62.70781 64.024381 34.523429 0 62.659048-28.769524 62.659047-64.024381 0-35.303619-28.135619-64.024381-62.659047-64.024381z m-187.977143 341.333333v512h584.899048v-512H104.448zM1170.285714 459.239619l-186.12419 191.488h-190.366476V896H0v-725.333333h793.84381V543.98781h146.822095l125.171809-128.731429v-281.648762H83.577905v-106.642286h86.454857c-1.80419-8.728381-2.925714-17.700571-2.925714-26.965333 0-70.704762 56.07619-128 125.318095-128s125.366857 57.295238 125.366857 128c0 9.264762-1.072762 18.236952-2.925714 26.965333h423.643428c-1.852952-8.728381-2.925714-17.700571-2.925714-26.965333 0-70.704762 56.07619-128 125.318095-128s125.366857 57.295238 125.366857 128c0 9.264762-1.072762 18.236952-2.925714 26.965333H1170.285714V459.190857z"  horiz-adv-x="1170" />

    
    <glyph glyph-name="crab-glyph-color" unicode="&#59377;" d="M1024 423.384615a74.830769 74.830769 0 0 1-24.497231 54.902154l165.572923 134.459077C1222.577231 641.575385 1260.307692 686.946462 1260.307692 738.461538c0 87.04-105.708308 157.538462-236.307692 157.538462-89.875692 0-167.069538-33.870769-207.084308-83.101538C832.590769 815.576615 849.053538 817.230769 866.461538 817.230769c87.04 0 157.538462-35.209846 157.538462-78.769231h-236.307692c0-82.156308 94.601846-148.795077 214.96123-155.963076L866.461538 502.153846h-39.384615c18.116923 0 35.209846-4.489846 50.648615-11.815384 24.497231-11.657846 44.032-31.192615 55.689847-55.689847 7.325538-15.438769 11.815385-32.531692 11.815384-50.648615 0-65.063385-52.932923-118.153846-118.153846-118.153846C762.013538 265.846154 708.923077 318.936615 708.923077 384c0 65.220923 53.090462 118.153846 118.153846 118.153846h-393.846154a118.153846 118.153846 0 0 0 0-236.307692C368.167385 265.846154 315.076923 318.936615 315.076923 384A119.335385 119.335385 0 0 0 433.230769 502.153846H393.846154L257.654154 582.498462C378.013538 589.666462 472.615385 656.305231 472.615385 738.461538H236.307692c0 43.559385 70.577231 78.769231 157.538462 78.769231 17.408 0 33.870769-1.654154 49.545846-4.332307C403.534769 862.129231 326.340923 896 236.307692 896 105.865846 896 0 825.501538 0 738.461538c0-51.515077 37.809231-96.886154 95.389538-125.715692l164.94277-133.986461A77.981538 77.981538 0 0 1 236.307692 423.384615v-78.76923H0v-78.769231h236.307692v-78.769231H0v-78.769231h236.307692l0.315077-54.19323-162.894769-81.526154 35.209846-70.498462 128.315077 64.118154 0.157539-20.48c2.599385-40.96 35.997538-73.728 77.666461-73.728h630.153846a78.454154 78.454154 0 0 1 77.824 73.885538l0.157539 20.48 128.315077-64.118153 35.209846 70.498461-163.052308 81.526154L1024 108.307692h236.307692V187.076923h-236.307692V265.846154h236.307692V344.615385h-236.307692V423.384615zM433.230769 384m-39.384615 0a39.384615 39.384615 0 1 1 78.769231 0 39.384615 39.384615 0 1 1-78.769231 0ZM827.076923 384m-39.384615 0a39.384615 39.384615 0 1 1 78.76923 0 39.384615 39.384615 0 1 1-78.76923 0Z"  horiz-adv-x="1260" />

    
    <glyph glyph-name="network1" unicode="&#60582;" d="M544 264h-64V696h64v-432z m448-64H640v-64h352v64z m-960 0v-64h352v64H32zM544 264h-160v-192h256v192h-96z m32-128h-128v64h128v-64z"  horiz-adv-x="1024" />

    
    <glyph glyph-name="note2" unicode="&#58943;" d="M512 85.333333c153.173333 0 277.333333 124.16 277.333333 277.333334s-124.16 277.333333-277.333333 277.333333-277.333333-124.16-277.333333-277.333333 124.16-277.333333 277.333333-277.333334z m0-64c-188.522667 0-341.333333 152.810667-341.333333 341.333334S323.477333 704 512 704s341.333333-152.810667 341.333333-341.333333-152.810667-341.333333-341.333333-341.333334zM515.456 554.666667c35.861333 0 64.704-9.813333 86.528-29.397334 22.186667-19.221333 33.28-45.653333 33.28-79.317333 0-26.986667-7.04-49.557333-21.077333-67.669333-4.8-5.909333-20.330667-20.330667-46.592-43.264-10.346667-8.512-18.133333-18.133333-23.296-28.842667-5.909333-10.730667-8.874667-22.933333-8.874667-36.608v-9.429333h-59.349333v9.429333c0 21.44 3.690667 39.018667 11.093333 52.693333 7.04 14.784 27.925333 37.717333 62.677333 68.778667l9.429334 10.538667c10.346667 13.312 15.530667 26.816 15.530666 40.490666 0 18.858667-5.354667 34.026667-16.085333 45.482667-11.093333 11.093333-26.816 16.64-47.146667 16.64-25.152 0-43.264-7.957333-54.357333-23.850667-9.984-13.312-14.976-32.170667-14.976-56.576H384c0 40.32 11.648 72.106667 34.944 95.402667 23.296 23.68 55.466667 35.498667 96.512 35.498667z m19.413333-335.573334l-0.554666-57.130666-57.685334 0.554666V219.093333h58.24z"  horiz-adv-x="1024" />

    
    <glyph glyph-name="icon_px_robot" unicode="&#58906;" d="M401.066667 418.133333c-8.533333 0-25.6-8.533333-25.6-25.6 0-8.533333 8.533333-25.6 25.6-25.6 8.533333 8.533333 25.6 17.066667 25.6 25.6 0 17.066667-17.066667 25.6-25.6 25.6zM512 631.466667c17.066667 0 25.6 8.533333 25.6 25.6 0 17.066667-8.533333 25.6-25.6 25.6-17.066667 0-25.6-8.533333-25.6-25.6 0-8.533333 8.533333-25.6 25.6-25.6zM221.866667 384l8.533333 51.2c-17.066667-17.066667-17.066667-34.133333-8.533333-51.2zM512 896C230.4 896 0 665.6 0 384s230.4-512 512-512 512 230.4 512 512-230.4 512-512 512z m307.2-554.666667c-8.533333-8.533333-17.066667-8.533333-25.6-8.533333v-136.533333c0-42.666667-25.6-68.266667-51.2-68.266667H281.6c-25.6 0-51.2 25.6-51.2 68.266667V332.8c-17.066667 0-34.133333 8.533333-42.666667 25.6-25.6 42.666667-17.066667 85.333333 17.066667 110.933333 8.533333 8.533333 17.066667 8.533333 25.6 8.533334v17.066666c0 34.133333 25.6 68.266667 51.2 68.266667h204.8v34.133333c-25.6 8.533333-42.666667 34.133333-42.666667 59.733334 0 34.133333 34.133333 68.266667 68.266667 68.266666s68.266667-34.133333 68.266667-68.266666c0-25.6-17.066667-51.2-42.666667-68.266667V554.666667h204.8c34.133333 0 51.2-25.6 51.2-68.266667V469.333333c17.066667 8.533333 34.133333 0 42.666667-17.066666 25.6-42.666667 17.066667-85.333333-17.066667-110.933334zM742.4 520.533333H281.6c-8.533333 0-8.533333-8.533333-8.533333-17.066666v-307.2c0-17.066667 8.533333-17.066667 8.533333-17.066667h460.8c8.533333 0 8.533333 8.533333 8.533333 17.066667V494.933333c0 17.066667-8.533333 25.6-8.533333 25.6z m-341.333333-179.2c-34.133333 0-59.733333 25.6-59.733334 51.2s25.6 59.733333 59.733334 59.733334c34.133333 0 59.733333-25.6 59.733333-59.733334s-25.6-51.2-59.733333-51.2z m145.066666-136.533333h-85.333333c-8.533333 0-17.066667 8.533333-17.066667 25.6s8.533333 25.6 17.066667 25.6h85.333333c8.533333 0 17.066667-8.533333 17.066667-25.6s-8.533333-25.6-17.066667-25.6z m93.866667 136.533333c-34.133333 0-59.733333 25.6-59.733333 59.733334s25.6 59.733333 59.733333 59.733333c34.133333 0 59.733333-25.6 59.733333-59.733333s-34.133333-59.733333-59.733333-59.733334zM802.133333 435.2V384c8.533333 8.533333 8.533333 25.6 0 51.2 0-8.533333 0-8.533333 0 0zM640 418.133333c-8.533333 0-25.6-8.533333-25.6-25.6 0-8.533333 8.533333-25.6 25.6-25.6 8.533333 0 25.6 8.533333 25.6 25.6 0 17.066667-17.066667 25.6-25.6 25.6zM640 452.266667c-34.133333 0-59.733333-25.6-59.733333-59.733334s25.6-59.733333 59.733333-59.733333c34.133333 0 59.733333 25.6 59.733333 59.733333s-34.133333 59.733333-59.733333 59.733334z m0-76.8c-17.066667 0-25.6 8.533333-25.6 17.066666s8.533333 25.6 25.6 25.6c8.533333 0 25.6-8.533333 25.6-25.6 0-8.533333-17.066667-17.066667-25.6-17.066666zM793.6 486.4v8.533333c0 34.133333-25.6 68.266667-51.2 68.266667H529.066667v34.133333c25.6 8.533333 42.666667 34.133333 42.666666 68.266667 8.533333 25.6-25.6 59.733333-59.733333 59.733333s-68.266667-34.133333-68.266667-68.266666c0-25.6 17.066667-51.2 42.666667-68.266667V554.666667H281.6c-25.6 8.533333-51.2-25.6-51.2-59.733334v-17.066666c-8.533333 0-17.066667 0-25.6-8.533334-34.133333-25.6-42.666667-68.266667-17.066667-110.933333 8.533333-17.066667 25.6-25.6 42.666667-34.133333v-136.533334c0-34.133333 25.6-59.733333 51.2-59.733333h460.8c25.6 0 51.2 25.6 51.2 68.266667V332.8c8.533333 0 17.066667 8.533333 25.6 8.533333 34.133333 25.6 42.666667 76.8 25.6 110.933334-17.066667 17.066667-34.133333 25.6-51.2 34.133333zM221.866667 375.466667c0 8.533333 0 8.533333 0 0-17.066667 25.6-17.066667 42.666667 0 51.2v-51.2z m264.533333 281.6c0 17.066667 8.533333 25.6 25.6 25.6 17.066667 0 25.6-8.533333 25.6-25.6 0-17.066667-8.533333-25.6-25.6-25.6-17.066667 0-25.6 17.066667-25.6 25.6z m264.533333-460.8c0-17.066667-8.533333-17.066667-8.533333-17.066667H281.6c-8.533333 0-8.533333 8.533333-8.533333 17.066667V494.933333c0 17.066667 8.533333 17.066667 8.533333 17.066667h460.8c8.533333 0 8.533333-8.533333 8.533333-17.066667v-298.666666z m51.2 179.2v59.733333l8.533334-8.533333c0-17.066667 0-34.133333-8.533334-51.2zM546.133333 256h-85.333333c-8.533333 0-17.066667-8.533333-17.066667-25.6s8.533333-25.6 17.066667-25.6h85.333333c8.533333 0 17.066667 8.533333 17.066667 25.6s-8.533333 25.6-17.066667 25.6zM401.066667 452.266667c-34.133333 0-59.733333-25.6-59.733334-59.733334s25.6-59.733333 59.733334-59.733333c34.133333 0 59.733333 25.6 59.733333 59.733333s-25.6 59.733333-59.733333 59.733334z m0-76.8c-8.533333 0-25.6 8.533333-25.6 17.066666s8.533333 25.6 25.6 25.6c8.533333 0 25.6-8.533333 25.6-25.6 0-8.533333-17.066667-17.066667-25.6-17.066666z"  horiz-adv-x="1024" />

    
    <glyph glyph-name="auto" unicode="&#58885;" d="M0 896h1024v-1024H0zM512 864C230.4 864 0 649.6 0 384c0-112 41.6-217.6 115.2-304C64 9.6 28.8-44.8 25.6-44.8c-6.4-9.6-6.4-22.4-3.2-32 9.6-12.8 19.2-19.2 32-19.2H512c281.6 0 512 214.4 512 480S793.6 864 512 864z m0-892.8H115.2c19.2 25.6 41.6 57.6 67.2 92.8 9.6 12.8 9.6 32-3.2 41.6C105.6 182.4 64 281.6 64 384 64 611.2 265.6 796.8 512 796.8S960 611.2 960 384c0-227.2-201.6-412.8-448-412.8zM448 384a64 64 0 1 1 128 0 64 64 0 1 1-128 0zM294.4 448c-35.2 0-64-28.8-64-64s28.8-64 64-64 64 28.8 64 64-28.8 64-64 64z m435.2 0c-35.2 0-64-28.8-64-64s28.8-64 64-64 64 28.8 64 64-28.8 64-64 64z"  horiz-adv-x="1024" />

    
    <glyph glyph-name="icon_crab_line" unicode="&#58908;" d="M1024 687.9h-0.6c-3.6 51.9-25.2 102.9-64.9 142.6C914.8 874.2 857.5 896 800.3 896c-37 0-74-9.1-107.4-27.3-30.4-55.8-35.3-121.7-14.8-180.8 7.9-22.7 19.5-44.3 34.9-64 5.6-7.2 11.5-14.2 18.2-20.8 43.7-43.7 100.9-65.5 158.2-65.5 23.9 0 47.8 4.2 70.7 11.8v-163.9c0-55-10-107.7-28.3-156.5C839.1 361.4 685.7 448 512 448c-173.4 0-326.5-86.3-419.2-218.1-18.2 48.7-28.2 101.4-28.2 156.3v163c22.8-7.5 46.4-11.6 70.1-11.6 57.3 0 114.5 21.8 158.2 65.5 6.6 6.6 12.5 13.6 18.2 20.8 15.4 19.7 27 41.3 34.9 64 20.5 59.1 15.6 125-14.8 180.8C297.7 886.9 260.7 896 223.7 896 166.5 896 109.2 874.2 65.5 830.5 25.8 790.8 4.5 739.8 1 687.9H0.6v-3.5c-0.5-8.9-0.6-17.8 0-26.7v-271.6c0-80.5 18.6-156.7 51.8-224.5C18.9 93.6 0 17 0-64v-64h1024v64c0 80.7-18.7 157-52 224.9 33.2 67.8 52 144.1 52 224.7V687.9zM223.7 832c20.4 0 40.6-3.9 59.3-11.3 17.2-43.3 14.2-92-6.8-132.7-7.4-14.4-16.9-27.8-28.7-39.6-9.6-9.6-20.3-17.7-31.7-24.4-24.4-14.4-52.1-22.3-81.2-22.3-20.4 0-40.6 3.9-59.3 11.3-1.4 3.6-2.3 7.3-3.4 11-6.6 20.9-8.8 42.6-6.6 64 3.6 36 18.9 70.7 45.5 97.3C140.9 815.4 181 832 223.7 832zM64-64c0 55.4 10.2 108.5 28.7 157.5 45.5-65.2 105.7-119.3 175.9-157.5H64z m896 0H756.5c69.9 38 129.8 91.8 175.1 156.6C949.9 43.8 960-8.9 960-64z m-447.4 2.2c-165.2 0-309.8 90-387.4 223.5C203 294.5 347.2 384 512 384c165.1 0 309.5-89.8 387.2-223.1-77.6-133.1-221.8-222.7-386.6-222.7z m436 674.7c-18.8-7.5-39-11.3-59.3-11.3-29.1 0-56.9 7.9-81.2 22.3-11.4 6.8-22.1 14.8-31.7 24.4-11.8 11.8-21.3 25.2-28.7 39.6-21 40.8-23.9 89.4-6.8 132.7 18.8 7.5 39 11.3 59.4 11.3 42.7 0 82.8-16.6 112.9-46.8 26.6-26.6 41.9-61.4 45.5-97.3 2.1-21.4-0.1-43.1-6.6-64-1.2-3.6-2-7.3-3.5-10.9zM392.3 512m-32 0a32 32 0 1 1 64 0 32 32 0 1 1-64 0ZM632.3 512m-32 0a32 32 0 1 1 64 0 32 32 0 1 1-64 0Z"  horiz-adv-x="1024" />

    
    <glyph glyph-name="person" unicode="&#58946;" d="M920.917333 53.461333l-7.082666 72.234667c-0.853333 47.744-36.096 80.128-176.725334 151.04-68.224 34.56-77.098667 40.96-77.098666 76.032v6.314667l1.792 6.016c4.437333 14.634667 10.666667 26.410667 19.882666 39.68 2.474667 3.584 10.666667 14.762667 11.776 16.341333a175.36 175.36 0 0 1 10.154667 15.786667c6.912 12.202667 12.714667 26.496 17.834667 45.44 8.234667 53.888 10.538667 83.968 9.941333 95.872l-0.170667 3.84c0.597333 118.997333-62.464 173.226667-142.634666 182.357333a174.464 174.464 0 0 1-118.314667-19.114667c-38.741333-24.277333-63.402667-64.128-76.373333-115.029333A309.76 309.76 0 0 1 384.298667 541.866667c1.194667-19.84 3.925333-39.552 7.936-58.026667 5.248-21.76 11.818667-37.333333 20.608-51.413333 4.138667-6.613333 20.138667-28.586667 20.394666-28.970667 8.874667-12.885333 14.933333-24.533333 18.986667-38.570667l1.706667-5.802666v-6.058667c0-35.2-9.130667-41.770667-77.226667-76.074667-141.226667-71.082667-176.64-103.978667-176.725333-154.88l-4.693334-69.546666a7.296 7.296 0 0 1 6.528-7.850667c12.330667-1.024 694.570667-1.152 713.258667-0.170667 3.754667 0.725333 6.4 4.309333 5.845333 8.96zM198.314667 2.133333a50.005333 50.005333 0 0 0-45.568 53.888l4.650666 68.906667c0 72.277333 50.346667 114.773333 200.106667 190.122667 49.322667 24.874667 53.76 28.757333 53.76 37.973333-10.368 35.712-42.752 47.018667-60.501333 120.832-4.693333 21.546667-7.68 43.392-9.088 65.408-0.768 17.749333-5.546667 172.373333 105.984 242.176a217.984 217.984 0 0 0 148.906666 24.874667c48.597333-5.418667 178.218667-45.056 177.322667-224.426667 0 0 2.56-22.314667-10.624-108.288-20.053333-76.288-49.493333-84.053333-60.586667-120.832 0-9.088 4.394667-12.970667 53.76-37.973333 148.394667-74.837333 198.784-116.565333 200.106667-188.330667l6.826667-68.736a50.133333 50.133333 0 0 0-43.008-55.594667c-12.032-1.408-707.797333-1.152-722.048 0zM284.842667 780.629333l4.693333-24.106666c-42.538667-49.664-67.541333-89.173333-75.093333-118.698667a269.226667 269.226667 0 0 1-8.32-76.842667c1.066667-17.237333 3.413333-34.389333 6.912-50.474666 4.565333-18.901333 10.24-32.426667 17.92-44.714667 3.584-5.717333 17.493333-24.746667 17.749333-25.130667 7.68-11.221333 12.928-21.333333 16.469333-33.536l1.493334-5.077333v-5.248c0-30.592-7.936-36.266667-67.157334-66.133333-122.709333-61.781333-153.514667-90.368-153.6-134.613334L41.813333 135.637333a6.357333 6.357333 0 0 1 5.674667-6.826666c3.584-0.341333 42.922667-0.554667 118.016-0.768l4.778667-36.906667a8908.501333 8908.501333 0 0 0-125.824 0.682667 43.477333 43.477333 0 0 0-39.594667 46.805333l4.053333 59.904c0 62.848 43.776 99.754667 173.909334 165.290667 42.922667 21.589333 46.72 25.002667 46.72 32.981333-8.96 31.061333-37.12 40.874667-52.565334 105.045333a377.045333 377.045333 0 0 0-7.893333 56.832c-0.682667 15.445333-4.821333 149.845333 92.117333 210.56a189.44 189.44 0 0 0 23.637334 11.392z"  horiz-adv-x="1024" />

    
    <glyph glyph-name="phone" unicode="&#58657;" d="M248.54394969 753.6750206300001c4.18275562-3.19462781 11.88631687-9.948435 23.39848875-23.38889532 13.1142825-15.30159469 27.82108125-35.33277375 42.595035-57.95419125 29.90286563-45.82803656 47.6795775-82.99316438 51.8047725-95.41671656-0.9593475-6.83055562-5.01738844-13.93932094-11.95347188-25.62417562-10.87900219-18.30435281-25.76807812-43.38170063-25.76807812-78.32114157 0-12.84566531 0-51.92948813 104.31946312-157.95658969 25.70092313-26.12303625 52.18851188-50.183475 74.57968594-67.75872375 34.01846719-26.68905188 56.53435688-37.5776475 77.70715875-37.5776475 30.00839438 0 54.87468562 13.28696531 74.82911625 23.98369125 14.1503775 7.56925312 26.47799531 14.15997094 37.05959906 14.89866844 10.04436937-2.81088844 44.39860875-19.43638312 97.92061407-57.76232156 21.7388175-15.56061844 42.69097031-32.00383781 58.98069281-46.27893 12.64420219-11.08046531 19.99280531-18.64971844 24.07003219-23.25458719-3.23300156-23.91653719-16.71183562-48.60055125-38.08610157-69.1881525-22.78450688-21.94028062-52.04460938-36.11943844-74.54131218-36.11943844-52.33241437 0-118.11488156 22.74613219-190.22904469 65.77287469-69.57189094 41.51097281-142.08897938 99.96402469-209.70380156 169.037055C299.11116406 318.65883187 242.53843344 391.41575719 201.919655 461.20829812c-20.32857656 34.9298475-35.98513031 68.11368281-46.54754812 98.52500344-10.33217438 29.73977719-15.57021187 56.26573969-15.57021188 78.75284813 0 9.10420875 3.83739094 20.46288562 11.07087188 32.85765656 7.99136625 13.68029719 19.80093563 27.98417063 34.14318281 41.36707031a224.25 224.25 0 0 0 42.89243344 31.73521969A106.55625 106.55625 0 0 0 248.54394969 753.6750206300001m4.63364906 50.25062999c-47.43974062 0-161.27593219-86.38925531-161.27593219-165.47787468 0-231.20278219 415.05216469-671.64887906 673.5771675-671.64887906 71.15481469 0 161.28552562 76.65187687 161.28552563 165.47787468 0 30.41132062-185.00059969 165.47787469-227.69157 165.47787469-43.87096781 0-75.8939925-38.93032781-113.83619156-38.93032781S376.50173844 430.43242594 376.50173844 473.0178675s37.94219906 63.26897719 37.94219906 107.07279094c0 31.65847219-113.83619156 223.88295938-161.27593219 223.88295937l0 0Z"  horiz-adv-x="1024" />

    
    <glyph glyph-name="icons-rtg_crane" unicode="&#60556;" d="M354.461932 896a39.384615 39.384615 0 0 1-39.384615-39.384615V738.461538H118.15424a39.384615 39.384615 0 0 1-39.384615-39.384615v-600.615385h78.76923V659.692308h236.307693v-236.307693h-39.384616a39.384615 39.384615 0 0 1-39.384615-39.384615v-157.538462a39.384615 39.384615 0 0 1 39.384615-39.384615h315.076923a39.384615 39.384615 0 0 1 39.384616 39.384615v157.538462a39.384615 39.384615 0 0 1-39.384616 39.384615H630.15424V659.692308h236.307692v-551.384616h78.769231V699.076923a39.384615 39.384615 0 0 1-39.384615 39.384615H708.923471V856.615385a39.384615 39.384615 0 0 1-39.384616 39.384615h-315.076923zM393.846548 817.230769h236.307692v-78.769231H393.846548V817.230769z m78.76923-157.538461h78.769231v-236.307693H472.615778V659.692308zM393.846548 344.615385h236.307692v-78.769231H393.846548V344.615385zM117.524086 30.168615A39.384615 39.384615 0 0 1 78.769625-9.846154v-78.769231a39.384615 39.384615 0 1 1 78.76923 0v78.769231a39.384615 39.384615 0 0 1-40.014769 40.014769z m787.692308 0A39.384615 39.384615 0 0 1 866.461932-9.846154v-78.769231a39.384615 39.384615 0 1 1 78.769231 0v78.769231a39.384615 39.384615 0 0 1-40.014769 40.014769z"  horiz-adv-x="1024" />

    
    <glyph glyph-name="icons-sts_crane" unicode="&#60795;" d="M470.345183 895.973547a42.665564 42.665564 0 0 1-31.060531-15.359603L95.656196 467.184624H0v-85.331129h169.808947v-170.662257H127.996693a42.665564 42.665564 0 0 1-42.665564-42.665565v-170.662258a42.665564 42.665564 0 0 1 42.665564-42.665564h170.662258a42.665564 42.665564 0 0 1 42.665565 42.665564v170.662258a42.665564 42.665564 0 0 1-42.665565 42.665565h-43.518875v170.662257H426.655645V-128h85.331129v85.331129h341.324515v-85.331129h85.331129V381.853495h85.331129v85.331129h-85.331129v85.331129h42.665565a42.665564 42.665564 0 0 1 42.665564 42.665565v170.662258a42.665564 42.665564 0 0 1-42.665564 42.665564h-170.662258a42.665564 42.665564 0 0 1-4.266556-0.170662h-0.255994L482.97419 894.522918A42.665564 42.665564 0 0 1 470.345183 895.973547zM511.986774 798.440067l255.993387-68.264903v-134.993846a42.665564 42.665564 0 0 1 42.665564-42.665565h42.665564v-85.331129H511.986774V798.440067z m-85.331129-66.558281v-264.697162H206.501332L426.655645 731.796455z m426.655644-8.703775h85.331129v-85.331129h-85.331129v85.331129z m-341.324515-341.324516h282.360705L511.986774 93.860935V381.853495z m341.324515-62.03573V42.662258H581.446313L853.311289 319.817765zM170.662258 125.860109h85.331129v-85.331129H170.662258v85.331129z"  horiz-adv-x="1024" />

    
    <glyph glyph-name="system1" unicode="&#59050;" d="M593.067026 465.492839a114.773238 114.773238 0 0 0-81.066599-195.839837 114.773238 114.773238 0 1 0 81.493265 195.839837z m-45.653296-45.226629a49.066626 49.066626 0 0 1-35.413303 14.933321 51.199957 51.199957 0 0 1-51.199958-51.199958 49.066626 49.066626 0 0 1 14.933321-35.83997 49.493292 49.493292 0 0 1 35.83997-14.933321 50.346625 50.346625 0 0 1 35.83997 14.506655 51.199957 51.199957 0 0 1 14.933321 36.266636 49.493292 49.493292 0 0 1-14.933321 36.266637zM512.000427 127.999787a255.999787 255.999787 0 1 0 255.999786 255.999786 255.999787 255.999787 0 0 0-255.999786-255.999786z m0 63.999946A191.99984 191.99984 0 1 1 320.000587 383.999573a192.426506 192.426506 0 0 1 191.99984-191.99984z m505.172912 110.933241l-4.266663-27.306644-82.346598-27.306644a451.412957 451.412957 0 0 0-26.879978-64.853279l38.826635-77.653269-15.786654-22.186648A530.346225 530.346225 0 0 0 810.666844-30.720081l-22.186648-16.21332-77.653268 38.826634a451.412957 451.412957 0 0 0-64.85328-26.879977l-27.306644-81.919932-26.879977-4.266663A511.999573 511.999573 0 0 0 512.000427-128a478.719601 478.719601 0 0 0-81.066599 7.253327l-26.879978 4.266663-27.73331 82.346598a433.492972 433.492972 0 0 0-64.426613 26.453312l-77.653269-38.826635-20.906649 15.786654A511.999573 511.999573 0 0 0 97.280772 85.333156l-15.786653 22.186648 38.826634 77.653268a446.719628 446.719628 0 0 0-26.879978 64.426613l-82.346598 26.026645-4.266663 27.306644a484.692929 484.692929 0 0 0 0 162.133198l4.266663 26.879978 82.346598 27.73331a451.412957 451.412957 0 0 0 26.879978 64.85328l-38.399968 77.226602 15.786654 20.906649a475.732937 475.732937 0 0 0 52.479956 63.146614A496.639586 496.639586 0 0 0 213.334009 798.292561l22.186648 16.21332 77.653269-38.826634a451.412957 451.412957 0 0 0 64.853279 26.879978L404.05385 884.905823l26.879978 4.266663a484.692929 484.692929 0 0 0 162.133198 0l27.306644-4.266663 27.306644-82.346598a469.332942 469.332942 0 0 0 64.426613-26.879978l77.653268 38.826634 22.186648-15.786653a464.639613 464.639613 0 0 0 62.293282-52.906623A516.266236 516.266236 0 0 0 926.293415 682.665991l16.21332-22.186648-38.826635-77.653269a451.412957 451.412957 0 0 0 26.879978-64.853279l82.346598-27.306644 4.266663-27.306644A511.999573 511.999573 0 0 0 1024 383.999573a463.78628 463.78628 0 0 0-6.826661-81.066599zM960.000053 383.999573a373.759689 373.759689 0 0 1-4.693329 59.733284l-75.946603 25.599979-9.813326 30.719974A312.31974 312.31974 0 0 1 846.506815 554.666098l-14.506655 29.013309 35.83997 71.67994a434.346305 434.346305 0 0 1-39.2533 45.653295 375.89302 375.89302 0 0 1-44.799963 38.826635l-71.67994-35.83997-29.439976 14.506654a417.279652 417.279652 0 0 1-55.893287 23.039981L597.333689 751.359267l-25.599979 76.37327a420.266316 420.266316 0 0 1-119.466567 0L426.667164 751.359267l-31.14664-9.813325A377.599685 377.599685 0 0 1 341.333902 718.505961l-29.013309-14.506654-71.67994 35.83997a439.892967 439.892967 0 0 1-45.226629-39.253301 406.612994 406.612994 0 0 1-38.826634-45.226629l35.413303-71.253274-14.506654-29.439975a312.31974 312.31974 0 0 1-23.039981-55.039954l-9.813325-30.293308-76.37327-25.599979a420.266316 420.266316 0 0 1 0-119.466567l76.37327-25.599979 9.813325-30.719974A330.666391 330.666391 0 0 1 177.494039 213.333049l14.506654-29.013309-35.83997-71.679941a461.226282 461.226282 0 0 1 85.333262-85.333262l71.679941 35.83997 29.013309-14.506654a359.6797 359.6797 0 0 1 55.46662-23.039981l30.719975-9.813325 25.173312-75.946604a383.99968 383.99968 0 0 1 59.733284-4.693329 426.666311 426.666311 0 0 1 59.306617 4.266663l25.599979 75.946604 30.719974 9.813325a346.026378 346.026378 0 0 1 55.46662 23.03998l28.586643 14.506655 71.67994-35.83997a465.919612 465.919612 0 0 1 85.333263 85.333262l-35.83997 71.67994 14.93332 29.01331a346.453045 346.453045 0 0 1 22.613315 55.039954l10.239991 30.719974 75.946604 25.599979a369.493025 369.493025 0 0 1 2.133331 59.733283z"  horiz-adv-x="1024" />

    
    <glyph glyph-name="robot" unicode="&#59321;" d="M981.333333 188.8a21.333333 21.333333 0 0 1-21.333333-21.333333v-168.96a21.333333 21.333333 0 0 1 42.666667 0v168.96a21.333333 21.333333 0 0 1-21.333334 21.333333zM42.666667 188.8a21.333333 21.333333 0 0 1-21.333334-21.333333v-168.96a21.333333 21.333333 0 0 1 42.666667 0v168.96a21.333333 21.333333 0 0 1-21.333333 21.333333zM366.72 289.28a83.413333 83.413333 0 0 1-82.773333-70.4 16 16 0 0 1 31.573333-5.12 51.84 51.84 0 0 0 102.4 0 16.213333 16.213333 0 0 1 15.786667-13.866667h2.346666a16 16 0 0 1 13.653334 18.133334 85.333333 85.333333 0 0 1-82.986667 71.253333zM657.28 289.28a83.413333 83.413333 0 0 1-82.773333-70.4 16 16 0 0 1 13.226666-18.346667 16.426667 16.426667 0 0 1 18.346667 13.226667 51.413333 51.413333 0 0 0 51.2 42.666667 52.053333 52.053333 0 0 0 51.2-43.093334 15.786667 15.786667 0 0 1 15.786667-13.866666h2.346666a16 16 0 0 1 13.44 18.133333 83.84 83.84 0 0 1-82.773333 71.68zM533.333333 554.666667v61.866666a88.32 88.32 0 1 1-42.666666 0V554.666667A390.186667 390.186667 0 0 1 121.813333 166.186667v-95.146667a94.08 94.08 0 0 1 94.08-93.866667h592.213334a94.08 94.08 0 0 1 94.08 93.866667v95.146667A390.186667 390.186667 0 0 1 533.333333 554.666667z m-66.986666 147.84A45.653333 45.653333 0 1 0 512 656.853333a45.653333 45.653333 0 0 0-45.653333 45.653334z m393.173333-631.466667a51.413333 51.413333 0 0 0-51.413333-51.2H215.893333a51.413333 51.413333 0 0 0-51.413333 51.2v95.146667a347.52 347.52 0 0 0 695.04 0z"  horiz-adv-x="1024" />

    
    <glyph glyph-name="person1" unicode="&#58888;" d="M201.184 194.528c8.192 23.712 25.536 39.808 45.248 53.76a345.696 345.696 0 0 0 49.184 28.832c12.384 6.016 24.704 12.32 37.856 16.352 15.04 4.64 21.792 15.84 25.856 29.568 2.24 7.52 1.92 15.264 0.864 22.912a28.192 28.192 0 0 1-6.912 15.136 209.984 209.984 0 0 0-51.904 115.616c-3.904 31.744-0.544 62.816 16.224 91.008 20.224 34.048 51.104 51.168 89.984 53.536 42.592 2.56 78.592-11.36 104.448-46.528 17.504-23.776 23.328-51.328 22.656-80.352-0.992-41.152-15.552-77.792-38.24-111.552-4.16-6.208-8.256-12.864-13.824-17.664-15.328-13.312-12.864-50.176-1.536-63.232 2.784-3.2 6.048-5.184 9.952-6.56 31.968-11.296 62.784-24.992 91.008-43.968 15.36-10.336 29.024-22.4 40.192-37.504 11.648-15.712 12.576-55.968-0.128-69.696a93.76 93.76 0 0 0-33.696-23.104c-24.928-10.336-51.264-14.624-77.824-17.888-16.512-2.016-33.12-2.656-49.696-3.68-1.152-0.064-2.496 0.288-3.136-1.184h-9.728c-5.024 1.312-10.176 0.288-15.232 0.608h-55.616c-35.04 0.672-70.144 0.672-104.416 9.76-17.056 4.544-33.888 9.536-48.736 19.648-6.112 4.16-11.072 9.408-16.128 14.624-5.728 5.92-5.312 13.728-6.752 20.992v30.4z m193.216-95.04h39.2l0.832-0.608-0.96-0.416H394.56c-0.928 0.224-0.96 0.544-0.16 1.024z m39.072-1.024l0.096 1.024c4.832-0.448 9.824 1.632 14.496-1.024h-14.592z m389.344 204.352l0.032-18.336c-1.184-18.88-12.736-30.368-28.064-39.072-18.976-10.784-39.936-15.36-61.088-19.136-18.56-3.328-37.28-5.152-56.096-6.24-2.656-0.16-4.96-0.512-6.4 2.848-11.872 27.584-32.704 47.424-56.576 64.448-27.008 19.264-56.544 33.824-87.36 45.92-6.336 2.496-6.336 2.56-2.048 8.064 28.16 36.064 47.328 76.32 54.656 121.6 7.232 44.608 1.952 87.584-20.928 127.392a135.904 135.904 0 0 1-30.368 36.832c-4.128 3.456-4.16 6.24-1.984 10.752 17.12 35.2 45.696 53.632 84.128 57.216 59.84 5.6 107.84-33.44 114.784-92.832 6.144-52.32-7.2-99.424-37.536-142.048a31.52 31.52 0 0 0-4.224-5.152c-9.024-8.256-10.816-19.072-10.752-30.432 0.064-10.368 4.16-16.192 13.952-19.68 23.264-8.32 46.144-17.568 67.744-29.664 20.032-11.2 39.36-23.424 54.24-41.408 7.488-9.056 13.056-19.008 13.888-31.04z"  horiz-adv-x="1024" />

    
    <glyph glyph-name="phone1" unicode="&#59337;" d="M736.292-63.667H287.708c-12.748 0-24.971 5.145-33.986 14.304-9.015 9.157-14.078 21.58-14.078 34.533V782.83c0 12.957 5.063 25.374 14.078 34.535 9.015 9.159 21.237 14.304 33.986 14.304h448.584c12.748 0 24.971-5.145 33.986-14.304 9.015-9.161 14.078-21.578 14.078-34.535v-797.66c0-12.953-5.063-25.376-14.078-34.533-9.015-9.16-21.238-14.304-33.986-14.304z m-464.605 81.395c0-12.953 5.063-25.376 14.074-34.535 9.019-9.157 21.241-14.304 33.988-14.304h384.502c12.746 0 24.969 5.147 33.988 14.304 9.011 9.159 14.076 21.582 14.076 34.535V131.68H271.687v-113.952zM704.251 799.109H319.749c-12.746 0-24.969-5.143-33.988-14.3-9.011-9.163-14.074-21.584-14.074-34.535v-586.038h480.627V750.274c0 12.951-5.065 25.372-14.076 34.535-9.018 9.157-21.241 14.3-33.987 14.3z m-124.835-65.114H444.584c-7.004 0.008-12.682 5.778-12.688 12.892v6.772c0 7.113 5.688 12.892 12.688 12.892h134.831c7 0 12.688-5.779 12.688-12.892v-6.772c-0.005-7.115-5.684-12.884-12.687-12.892z m-67.415-730.006c-31.529 0-57.067 25.736-57.067 57.497 0 31.745 25.537 57.479 57.067 57.479 31.529 0 57.065-25.734 57.065-57.479 0-31.761-25.536-57.497-57.065-57.497z m0 90.051c-11.452 0.004-22.03-6.204-27.753-16.274-5.727-10.076-5.727-22.491 0-32.563 5.723-10.076 16.301-16.279 27.753-16.279 17.691 0.006 32.037 14.58 32.037 32.561 0 17.975-14.346 32.553-32.037 32.555z m0 0"  horiz-adv-x="1024" />

    
    <glyph glyph-name="networkcable" unicode="&#60371;" d="M580.266667-128c-3.413333 0-10.24 0-13.653334 3.413333-6.826667 6.826667-6.826667 17.066667 0 23.893334l273.066667 273.066666c40.96 40.96 40.96 105.813333 0 146.773334s-105.813333 40.96-146.773333 0l-337.92-341.333334c-54.613333-54.613333-139.946667-54.613333-194.56 0-54.613333 54.613333-54.613333 139.946667 0 194.56l153.6 153.6c6.826667 6.826667 17.066667 6.826667 23.893333 0 6.826667-6.826667 6.826667-17.066667 0-23.893333l-153.6-153.6c-40.96-40.96-40.96-105.813333 0-146.773333s105.813333-40.96 146.773333 0l337.92 341.333333c54.613333 54.613333 139.946667 54.613333 194.56 0 54.613333-54.613333 54.613333-139.946667 0-194.56l-273.066666-273.066667c0-3.413333-6.826667-3.413333-10.24-3.413333zM375.466667 315.733333c-3.413333 0-10.24 0-13.653334 3.413334l-34.133333 34.133333c-6.826667 6.826667-6.826667 17.066667 0 23.893333s17.066667 6.826667 23.893333 0l34.133334-34.133333c6.826667-6.826667 6.826667-17.066667 0-23.893333 0-3.413333-6.826667-3.413333-10.24-3.413334zM460.8 332.8c-3.413333 0-10.24 0-13.653333 3.413333l-102.4 102.4c-6.826667 6.826667-6.826667 17.066667 0 23.893334s17.066667 6.826667 23.893333 0l102.4-102.4c6.826667-6.826667 6.826667-17.066667 0-23.893334 0-3.413333-6.826667-3.413333-10.24-3.413333zM546.133333 349.866667c-3.413333 0-10.24 0-13.653333 3.413333l-170.666667 170.666667c-6.826667 6.826667-6.826667 17.066667 0 23.893333s17.066667 6.826667 23.893334 0l170.666666-170.666667c6.826667-6.826667 6.826667-17.066667 0-23.893333 0-3.413333-6.826667-3.413333-10.24-3.413333zM785.066667 588.8c-3.413333 0-10.24 0-13.653334 3.413333l-170.666666 170.666667c-3.413333 3.413333-6.826667 13.653333-3.413334 17.066667 0 3.413333 3.413333 6.826667 6.826667 10.24 10.24 6.826667 58.026667 54.613333 98.986667 98.986666 3.413333 3.413333 10.24 6.826667 13.653333 6.826667 3.413333 0 10.24-3.413333 13.653333-3.413333l170.666667-170.666667c6.826667-6.826667 6.826667-17.066667 0-23.893333l-102.4-102.4c-3.413333-6.826667-10.24-6.826667-13.653333-6.826667z m-146.773334 187.733333L785.066667 629.76l78.506666 78.506667L716.8 855.04c-40.96-44.373333-64.853333-64.853333-78.506667-78.506667zM733.866667 776.533333c-3.413333 0-10.24 0-13.653334 3.413334-6.826667 6.826667-6.826667 17.066667 0 23.893333l34.133334 34.133333c6.826667 6.826667 17.066667 6.826667 23.893333 0s6.826667-17.066667 0-23.893333l-34.133333-34.133333c0-3.413333-6.826667-3.413333-10.24-3.413334zM768 742.4c-3.413333 0-10.24 0-13.653333 3.413333-6.826667 6.826667-6.826667 17.066667 0 23.893334l34.133333 34.133333c6.826667 6.826667 17.066667 6.826667 23.893333 0s6.826667-17.066667 0-23.893333l-34.133333-34.133334c0-3.413333-6.826667-3.413333-10.24-3.413333zM802.133333 708.266667c-3.413333 0-10.24 0-13.653333 3.413333-6.826667 6.826667-6.826667 17.066667 0 23.893333l34.133333 34.133334c6.826667 6.826667 17.066667 6.826667 23.893334 0s6.826667-17.066667 0-23.893334l-34.133334-34.133333c0-3.413333-6.826667-3.413333-10.24-3.413333zM614.4 520.533333c-3.413333 0-10.24 0-13.653333 3.413334l-68.266667 68.266666c-6.826667 6.826667-6.826667 17.066667 0 23.893334l119.466667 119.466666c6.826667 6.826667 17.066667 6.826667 23.893333 0s6.826667-17.066667 0-23.893333l-105.813333-105.813333L614.4 561.493333l105.813333 105.813334c6.826667 6.826667 17.066667 6.826667 23.893334 0s6.826667-17.066667 0-23.893334l-119.466667-119.466666c0-3.413333-6.826667-3.413333-10.24-3.413334zM648.533333 384h-51.2c-3.413333 0-10.24 3.413333-13.653333 3.413333l-187.733333 187.733334c-3.413333 3.413333-3.413333 6.826667-3.413334 13.653333V640c0 3.413333 3.413333 10.24 3.413334 13.653333l170.666666 170.666667c6.826667 6.826667 17.066667 6.826667 23.893334 0l34.133333-34.133333c6.826667-6.826667 6.826667-17.066667 0-23.893334s-17.066667-6.826667-23.893333 0l-20.48 20.48-153.6-153.6v-37.546666l177.493333-177.493334h37.546667l153.6 153.6-20.48 20.48c-6.826667 6.826667-6.826667 17.066667 0 23.893334 6.826667 6.826667 17.066667 6.826667 23.893333 0l34.133333-34.133334c6.826667-6.826667 6.826667-17.066667 0-23.893333l-170.666666-170.666667c-3.413333 0-10.24-3.413333-13.653334-3.413333zM546.133333 520.533333c-3.413333 0-10.24 0-13.653333 3.413334-6.826667 6.826667-6.826667 17.066667 0 23.893333l34.133333 34.133333c6.826667 6.826667 17.066667 6.826667 23.893334 0s6.826667-17.066667 0-23.893333l-34.133334-34.133333c0-3.413333-6.826667-3.413333-10.24-3.413334z"  horiz-adv-x="1024" />

    
    <glyph glyph-name="contactperson" unicode="&#58883;" d="M646.4 358.4c70.4 44.8 121.6 128 121.6 217.6 0 140.8-115.2 256-256 256S256 716.8 256 576c0-89.6 51.2-172.8 121.6-217.6-147.2-57.6-249.6-211.2-249.6-390.4 0-19.2 12.8-32 32-32s32 12.8 32 32C192 160 332.8 320 512 320s320-160 320-352c0-19.2 12.8-32 32-32s32 12.8 32 32c0 179.2-102.4 332.8-249.6 390.4zM320 576c0 108.8 83.2 192 192 192s192-83.2 192-192-83.2-192-192-192-192 83.2-192 192z"  horiz-adv-x="1024" />

    
    <glyph glyph-name="systemmanagement" unicode="&#59001;" d="M395.605333 504.0128l238.933334 170.666667 39.594666-55.569067-238.865066-170.666667zM399.633067 243.438933l33.860266 59.323734 385.297067-220.091734-33.860267-59.323733zM238.933333 145.066667C109.226667 145.066667 0 254.293333 0 384S109.226667 622.933333 238.933333 622.933333 477.866667 513.706667 477.866667 384 368.64 145.066667 238.933333 145.066667z m0 409.6C143.36 554.666667 68.266667 479.573333 68.266667 384S143.36 213.333333 238.933333 213.333333 409.6 288.426667 409.6 384 334.506667 554.666667 238.933333 554.666667zM785.066667 554.666667C689.493333 554.666667 614.4 629.76 614.4 725.333333S689.493333 896 785.066667 896 955.733333 820.906667 955.733333 725.333333 880.64 554.666667 785.066667 554.666667z m0 273.066666c-54.613333 0-102.4-47.786667-102.4-102.4S730.453333 622.933333 785.066667 622.933333 887.466667 670.72 887.466667 725.333333 839.68 827.733333 785.066667 827.733333zM887.466667-128c-75.093333 0-136.533333 61.44-136.533334 136.533333s61.44 136.533333 136.533334 136.533334 136.533333-61.44 136.533333-136.533334-61.44-136.533333-136.533333-136.533333z m0 204.8c-40.96 0-68.266667-27.306667-68.266667-68.266667s27.306667-68.266667 68.266667-68.266666 68.266667 27.306667 68.266666 68.266666-27.306667 68.266667-68.266666 68.266667z"  horiz-adv-x="1024" />

    
    <glyph glyph-name="person2" unicode="&#58927;" d="M749.714286 292.571429c-69.485714 0-128-58.514286-128-128s58.514286-128 128-128S877.714286 95.085714 877.714286 164.571429c0 32.914286-14.628571 65.828571-36.571429 91.428571-25.6 21.942857-58.514286 36.571429-91.428571 36.571429z m0-182.857143c-29.257143 0-54.857143 25.6-54.857143 54.857143s25.6 54.857143 54.857143 54.857142c14.628571 0 29.257143-7.314286 40.228571-14.628571 10.971429-7.314286 14.628571-25.6 14.628572-40.228571 0-29.257143-25.6-54.857143-54.857143-54.857143zM1009.371429 226.742857c-29.257143 7.314286-51.2 25.6-65.828572 47.542857-14.628571 25.6-18.285714 54.857143-10.971428 80.457143 0 3.657143 0 10.971429-3.657143 14.628572-25.6 21.942857-54.857143 40.228571-87.771429 51.2-3.657143 0-10.971429 0-14.628571-3.657143-18.285714-21.942857-47.542857-32.914286-76.8-32.914286s-54.857143 10.971429-76.8 32.914286c-3.657143 3.657143-10.971429 3.657143-14.628572 3.657143-32.914286-10.971429-62.171429-29.257143-87.771428-51.2-3.657143-3.657143-7.314286-7.314286-3.657143-14.628572 7.314286-25.6 3.657143-54.857143-10.971429-80.457143-14.628571-25.6-40.228571-43.885714-65.828571-47.542857-3.657143 0-7.314286-3.657143-10.971429-10.971428-7.314286-32.914286-7.314286-65.828571 0-102.4 0-3.657143 3.657143-7.314286 10.971429-10.971429 29.257143-7.314286 51.2-21.942857 65.828571-47.542857 14.628571-25.6 18.285714-54.857143 10.971429-80.457143 0-3.657143 0-10.971429 3.657143-14.628571 25.6-21.942857 54.857143-40.228571 87.771428-51.2h3.657143c3.657143 0 7.314286 0 10.971429 3.657142 18.285714 21.942857 47.542857 32.914286 76.8 32.914286s54.857143-10.971429 76.8-32.914286c3.657143-3.657143 7.314286-3.657143 14.628571-3.657142 32.914286 10.971429 62.171429 29.257143 87.771429 51.2 3.657143 3.657143 7.314286 7.314286 3.657143 14.628571-10.971429 25.6-7.314286 58.514286 7.314285 80.457143 14.628571 25.6 40.228571 43.885714 65.828572 47.542857 3.657143 0 7.314286 3.657143 10.971428 10.971429 7.314286 32.914286 7.314286 65.828571 0 102.4 0 3.657143-3.657143 7.314286-7.314285 10.971428z m-62.171429-91.428571c-25.6-7.314286-47.542857-25.6-62.171429-47.542857-14.628571-21.942857-18.285714-51.2-10.971428-73.142858-14.628571-14.628571-32.914286-21.942857-54.857143-29.257142-18.285714 18.285714-43.885714 29.257143-73.142857 29.257142-25.6 0-51.2-10.971429-73.142857-29.257142-18.285714 7.314286-36.571429 18.285714-54.857143 29.257142 7.314286 25.6 3.657143 51.2-10.971429 73.142858-14.628571 21.942857-36.571429 40.228571-62.171428 47.542857-3.657143 21.942857-3.657143 40.228571 0 62.171428 25.6 7.314286 47.542857 25.6 62.171428 47.542857 14.628571 21.942857 18.285714 51.2 10.971429 73.142858 14.628571 14.628571 32.914286 21.942857 54.857143 29.257142 18.285714-18.285714 43.885714-29.257143 73.142857-29.257142 25.6 0 51.2 10.971429 73.142857 29.257142 18.285714-7.314286 36.571429-18.285714 54.857143-29.257142-7.314286-25.6-3.657143-51.2 10.971428-73.142858 14.628571-21.942857 36.571429-40.228571 62.171429-47.542857 3.657143-21.942857 3.657143-43.885714 0-62.171428zM109.714286 91.428571h73.142857c0 120.685714 98.742857 219.428571 219.428571 219.428572 32.914286 0 65.828571-7.314286 95.085715-21.942857 14.628571 21.942857 29.257143 40.228571 47.542857 58.514285-7.314286 3.657143-14.628571 7.314286-18.285715 10.971429 36.571429 32.914286 62.171429 80.457143 62.171429 135.314286 0 102.4-80.457143 182.857143-182.857143 182.857143s-182.857143-80.457143-182.857143-182.857143c0-54.857143 21.942857-102.4 62.171429-135.314286C179.2 310.857143 109.714286 208.457143 109.714286 91.428571z m292.571428 512C464.457143 603.428571 512 555.885714 512 493.714286S464.457143 384 402.285714 384 292.571429 431.542857 292.571429 493.714286 340.114286 603.428571 402.285714 603.428571zM950.857143 859.428571H73.142857c-40.228571 0-73.142857-32.914286-73.142857-73.142857v-731.428571c0-40.228571 32.914286-73.142857 73.142857-73.142857h384c-7.314286 21.942857-10.971429 47.542857-14.628571 73.142857H109.714286c-21.942857 0-36.571429 18.285714-36.571429 36.571428V749.714286c0 18.285714 14.628571 36.571429 36.571429 36.571428h804.571428c21.942857 0 36.571429-18.285714 36.571429-36.571428v-321.828572c25.6-10.971429 51.2-25.6 73.142857-43.885714V786.285714c0 40.228571-32.914286 73.142857-73.142857 73.142857zM694.857143 603.428571H877.714286c21.942857 0 36.571429 14.628571 36.571428 36.571429S899.657143 676.571429 877.714286 676.571429H694.857143c-21.942857 0-36.571429-14.628571-36.571429-36.571429s14.628571-36.571429 36.571429-36.571429z m0-146.285714H804.571429c21.942857 0 36.571429 14.628571 36.571428 36.571429S826.514286 530.285714 804.571429 530.285714H694.857143c-21.942857 0-36.571429-14.628571-36.571429-36.571428s14.628571-36.571429 36.571429-36.571429z"  horiz-adv-x="1024" />

    
    <glyph glyph-name="note3" unicode="&#59210;" d="M186.181818 802.909091h651.636364a46.545455 46.545455 0 0 0 46.545454-46.545455v-744.727272a46.545455 46.545455 0 0 0-46.545454-46.545455H186.181818a46.545455 46.545455 0 0 0-46.545454 46.545455V756.363636a46.545455 46.545455 0 0 0 46.545454 46.545455z m0-46.545455v-744.727272h651.636364V756.363636H186.181818z m139.636364-162.909091h372.363636v-46.545454H325.818182v46.545454z m0-162.90909h372.363636v-46.545455H325.818182v46.545455z m0-162.909091h256v-46.545455H325.818182v46.545455z"  horiz-adv-x="1024" />

    
    <glyph glyph-name="CRAB" unicode="&#59193;" d="M691.89 397.606L665.896 423.6l105.896 105.894 25.992-25.992zM205.328 503.512l25.994 25.994 105.894-105.896-25.992-25.992zM760.892 708.708c64.664-4.654 115.274-60.054 112.212-126.58-2.858-62.074-53.242-112.456-115.318-115.312-66.522-3.058-121.918 47.548-126.572 112.212-0.342 4.756 3.384 8.826 8.154 8.826h104.53a8.168 8.168 0 0 1 8.168 8.168V700.554c0 4.77 4.068 8.496 8.826 8.154zM941.132 229.192a19.98 19.98 0 0 0-16.396 8.522l-32.318 46.108h-119.274c-11.046 0-20 8.954-20 20s8.954 20 20 20h129.678c6.522 0 12.634-3.18 16.378-8.52l38.292-54.628c6.34-9.044 4.146-21.516-4.898-27.858a19.914 19.914 0 0 0-11.462-3.624zM873.74 143.42a19.974 19.974 0 0 0-16.394 8.522l-32.32 46.108h-119.274c-11.046 0-20 8.954-20 20s8.954 20 20 20h129.678a19.996 19.996 0 0 0 16.376-8.52l38.292-54.628c6.34-9.044 4.148-21.516-4.898-27.856a19.892 19.892 0 0 0-11.46-3.626zM792.052 39.268a19.974 19.974 0 0 0-16.394 8.522l-32.32 46.108h-119.274c-11.046 0-20 8.954-20 20s8.954 20 20 20h129.678a19.996 19.996 0 0 0 16.376-8.52l38.292-54.628c6.34-9.044 4.148-21.516-4.898-27.856a19.892 19.892 0 0 0-11.46-3.626zM82.868 229.192a19.914 19.914 0 0 0-11.462 3.624c-9.044 6.34-11.238 18.812-4.898 27.858L104.8 315.302a20.002 20.002 0 0 0 16.378 8.52h129.678c11.046 0 20-8.954 20-20s-8.954-20-20-20H131.582l-32.318-46.108a19.98 19.98 0 0 0-16.396-8.522zM150.26 143.42a19.902 19.902 0 0 0-11.462 3.626c-9.044 6.34-11.238 18.812-4.898 27.856l38.292 54.628a20 20 0 0 0 16.376 8.52h129.678c11.046 0 20-8.954 20-20s-8.954-20-20-20H198.974l-32.32-46.108a19.972 19.972 0 0 0-16.394-8.522zM231.948 39.268a19.902 19.902 0 0 0-11.462 3.626c-9.044 6.34-11.238 18.812-4.898 27.856l38.292 54.628a20 20 0 0 0 16.376 8.52h129.678c11.046 0 20-8.954 20-20s-8.954-20-20-20H280.66l-32.32-46.108a19.976 19.976 0 0 0-16.392-8.522zM205.156 287.48a296.402 213.686 0 1 1 592.804 0 296.402 213.686 0 1 1-592.804 0ZM583.246 94.216c-163.698 0-296.402 95.672-296.402 213.686 0 82.392 64.688 153.88 159.438 189.538-137.278-18.67-241.126-105.566-241.126-209.96 0-118.014 132.704-213.686 296.402-213.686 49.414 0 95.996 8.73 136.964 24.148a410.252 410.252 0 0 0-55.276-3.726zM236.214 708.708c-64.664-4.654-115.274-60.054-112.212-126.58 2.858-62.074 53.242-112.456 115.318-115.312 66.522-3.058 121.918 47.548 126.572 112.212 0.342 4.756-3.384 8.826-8.154 8.826h-104.53a8.168 8.168 0 0 0-8.168 8.168V700.554c0 4.77-4.068 8.496-8.826 8.154zM280.164 487.238c-62.074 2.856-112.46 53.236-115.318 115.312-1.914 41.554 17.116 78.766 47.43 101.982-52.744-14.78-90.946-64.35-88.274-122.404 2.858-62.076 53.242-112.456 115.318-115.312 29.884-1.374 57.502 8.106 79.304 24.802a121.668 121.668 0 0 0-38.46-4.38zM798.63 487.238c-62.49-2.872-115.152 41.612-125.168 100.616h-34.096c-4.77 0-8.496-4.068-8.154-8.824 4.654-64.664 60.05-115.27 126.572-112.212 25.302 1.164 48.66 10.228 67.65 24.758a119.538 119.538 0 0 0-26.804-4.338zM716.826 182.166a12 12 0 0 0-9.348 19.512c76.382 95.134-4.3 175.518-7.772 178.894a12.006 12.006 0 0 0-0.266 16.958 11.988 11.988 0 0 0 16.94 0.302c1.034-0.996 25.484-24.848 39.028-62.668 12.666-35.376 17.88-89.856-29.214-148.512a11.99 11.99 0 0 0-9.368-4.486zM844.154 569.996a12 12 0 0 0-11.994 11.768c-0.998 51.496-45.602 78.092-47.5 79.2-5.712 3.332-7.668 10.666-4.354 16.388a11.98 11.98 0 0 0 16.35 4.398c2.378-1.366 58.236-34.228 59.5-99.522a12 12 0 0 0-11.766-12.23l-0.236-0.002zM381.41 229.4m-32.534 0a32.534 32.534 0 1 1 65.068 0 32.534 32.534 0 1 1-65.068 0ZM454.378 173.062m-32.534 0a32.534 32.534 0 1 1 65.068 0 32.534 32.534 0 1 1-65.068 0ZM583.246 499.982m-24.886 0a24.886 24.886 0 1 1 49.772 0 24.886 24.886 0 1 1-49.772 0ZM419.87 499.982m-24.886 0a24.886 24.886 0 1 1 49.772 0 24.886 24.886 0 1 1-49.772 0ZM287.392 497.252a12 12 0 0 0-2.928 23.638c29.228 7.378 27.204 29.886 26.502 34.324-1.164 6.524 3.192 12.702 9.716 13.866 6.526 1.156 12.768-3.238 13.93-9.762 2.982-16.72-2.434-51.134-44.276-61.696a11.948 11.948 0 0 0-2.944-0.37z"  horiz-adv-x="1024" />

    
    <glyph glyph-name="robot1" unicode="&#58990;" d="M661.333333 405.333333c-36.266667 0-64-27.733333-64-64s27.733333-64 64-64 64 27.733333 64 64-27.733333 64-64 64M362.666667 405.333333c-36.266667 0-64-27.733333-64-64s27.733333-64 64-64 64 27.733333 64 64-27.733333 64-64 64M128 576c0 23.466667 19.2 42.666667 42.666667 42.666667h170.666666l-61.866666 155.733333c-8.533333 21.333333 2.133333 46.933333 23.466666 55.466667 21.333333 8.533333 46.933333-2.133333 55.466667-23.466667l74.666667-185.6h155.733333l74.666667 185.6c8.533333 21.333333 34.133333 32 55.466666 23.466667 21.333333-8.533333 32-34.133333 23.466667-55.466667L682.666667 618.666667h170.666666c23.466667 0 42.666667-19.2 42.666667-42.666667v-597.333333c0-23.466667-19.2-42.666667-42.666667-42.666667H170.666667c-23.466667 0-42.666667 19.2-42.666667 42.666667V576z m85.333333-42.666667v-512h597.333334V533.333333H213.333333zM1024 170.666667V384c0 23.466667-19.2 42.666667-42.666667 42.666667s-42.666667-19.2-42.666666-42.666667v-213.333333c0-23.466667 19.2-42.666667 42.666666-42.666667s42.666667 19.2 42.666667 42.666667M42.666667 128c23.466667 0 42.666667 19.2 42.666666 42.666667V384c0 23.466667-19.2 42.666667-42.666666 42.666667s-42.666667-19.2-42.666667-42.666667v-213.333333c0-23.466667 19.2-42.666667 42.666667-42.666667"  horiz-adv-x="1024" />

    
    <glyph glyph-name="robot2" unicode="&#59110;" d="M771.413333 740.693333c-17.066667 27.306667-18.773333 63.146667-1.706666 92.16 23.893333 40.96 78.506667 56.32 119.466666 32.426667 27.306667-15.36 44.373333-44.373333 44.373334-76.8s-17.066667-61.44-44.373334-76.8c-15.36-8.533333-30.72-11.946667-47.786666-11.946667L785.066667 602.453333c105.813333-85.333333 174.08-215.04 174.08-361.813333v-174.08c0-98.986667-78.506667-177.493333-177.493334-177.493333H211.626667C114.346667-110.933333 34.133333-30.72 34.133333 66.56V242.346667c0 151.893333 73.386667 286.72 186.026667 370.346666l-51.2 88.746667c-34.133333-3.413333-66.56 11.946667-85.333333 42.666667-23.893333 42.666667-10.24 97.28 32.426666 121.173333s95.573333 10.24 121.173334-32.426667c17.066667-29.013333 15.36-61.44 0-88.746666l51.2-90.453334c63.146667 30.72 133.12 49.493333 208.213333 49.493334 80.213333 0 155.306667-20.48 221.866667-56.32l52.906666 93.866666z m-124.586666-448.853333c-23.893333 0-44.373333 20.48-44.373334 44.373333v44.373334c0 23.893333 20.48 44.373333 44.373334 44.373333 23.893333 0 44.373333-20.48 44.373333-44.373333v-44.373334c0-23.893333-20.48-44.373333-44.373333-44.373333z m-298.666667 0c-23.893333 0-44.373333 20.48-44.373333 44.373333v44.373334c0 23.893333 20.48 44.373333 44.373333 44.373333s44.373333-20.48 44.373333-44.373333v-44.373334c0-23.893333-20.48-44.373333-44.373333-44.373333zM496.64 622.933333C285.013333 622.933333 114.346667 450.56 114.346667 240.64V59.733333c0-49.493333 40.96-90.453333 90.453333-90.453333h587.093333c49.493333 0 90.453333 40.96 90.453334 90.453333V240.64c0 35.84-5.12 71.68-15.36 105.813333C819.2 505.173333 672.426667 622.933333 496.64 622.933333zM648.533333 162.133333c-27.306667-59.733333-85.333333-98.986667-151.893333-98.986666-66.56 0-124.586667 40.96-151.893333 100.693333-1.706667 3.413333-3.413333 8.533333-3.413334 13.653333 0 17.066667 11.946667 29.013333 29.013334 29.013334 10.24 0 20.48-6.826667 25.6-17.066667 17.066667-40.96 56.32-68.266667 100.693333-68.266667 44.373333 0 83.626667 27.306667 100.693333 68.266667 5.12 10.24 13.653333 17.066667 25.6 17.066667 15.36 0 29.013333-13.653333 29.013334-29.013334 0-5.12-1.706667-10.24-3.413334-15.36z"  horiz-adv-x="1024" />

    
    <glyph glyph-name="system2" unicode="&#58918;" d="M512 384m-512 0a512 512 0 1 1 1024 0 512 512 0 1 1-1024 0ZM536.32 570.688a18.688 18.688 0 0 1-19.904-2.56l-107.616-89.568-85.824 0.32a18.656 18.656 0 0 1-18.688-18.656l-0.384-149.664a18.72 18.72 0 0 1 18.688-18.752h86.784l107.04-89.216a18.72 18.72 0 0 1 30.688 14.4V553.696a18.72 18.72 0 0 1-10.784 16.96z m72.544-93.568a18.624 18.624 0 0 1-24.672-8.768 18.848 18.848 0 0 1 8.544-24.96c1.184-0.64 29.184-15.2 29.184-56.64 0-44.32-26.176-59.008-27.072-59.52a18.72 18.72 0 0 1 16.768-33.472c1.92 0.96 47.744 24.704 47.744 92.96 0 65.92-48.448 89.44-50.496 90.4z m58.24 54.944a18.688 18.688 0 0 1-20.288-31.424c2.016-1.344 49.952-34.016 49.952-115.296 0-81.472-45.984-114.144-47.808-115.392a18.72 18.72 0 1 1 20.768-31.136c2.624 1.76 64.448 44.16 64.448 146.56 0 102.592-64.32 144.96-67.072 146.72z"  horiz-adv-x="1024" />

    
    <glyph glyph-name="person3" unicode="&#58626;" d="M203.829382-106.66665766999995c21.838862 4.853081 43.677725 9.706161 65.516587 14.559242 46.104265 9.706161 70.369668 14.559242 72.796208 14.559242 16.985782 7.279621 26.691943 19.412322 31.545023 33.971564 4.853081 19.412322 7.279621 33.971564 12.132701 48.530805 4.853081 16.985782 14.559242 26.691943 26.691943 29.118483 14.559242 2.42654 24.265403 9.706161 29.118483 19.412322-12.132701 4.853081-24.265403 24.265403-36.398104 50.957346-12.132701 29.118483-19.412322 72.796208-26.691943 133.459714-16.985782-19.412322-29.118483-16.985782-36.398104 4.853081-7.279621 21.838862-16.985782 46.104265-29.118483 75.222748-12.132701 29.118483-16.985782 53.383886-16.985782 77.649288 0 21.838862 9.706161 31.545023 31.545023 29.118483 2.42654 21.838862 4.853081 33.971564 4.853081 33.971564 0 4.853081-2.42654 14.559242-7.279621 26.691943-4.853081 12.132701-4.853081 31.545023-2.42654 58.236966 2.42654 26.691943 2.42654 48.530805-2.42654 67.943127-4.853081 19.412322 0 38.824644 9.706161 58.236966 14.559242 19.412322 24.265403 33.971564 29.118483 46.104265 9.706161 21.838862 41.251184 43.677725 89.78199 63.090047 50.957346 19.412322 99.488151 29.118483 148.018956 29.118483 0 4.853081 9.706161 4.853081 31.545023 2.42654 24.265403-4.853081 50.957346-16.985782 77.649288-31.545023 9.706161-4.853081 24.265403-19.412322 46.104265-41.251184 4.853081 4.853081 12.132701 7.279621 21.838862 9.706161C788.625585 745.04897433 793.478666 747.47551533 798.331746 747.47551533c24.265403 0 38.824644-19.412322 48.530805-58.236966 7.279621-29.118483 9.706161-72.796208 9.706161-131.033174 0-50.957346 0-80.075829 0-82.502369 0-4.853081-2.42654-21.838862-7.279621-48.530805 7.279621 4.853081 14.559242 4.853081 21.838862-2.42654 4.853081-7.279621 9.706161-12.132701 9.706161-14.559242 0-4.853081 0-21.838862-2.42654-50.957346-2.42654-31.545023-7.279621-58.236966-12.132701-80.075829-4.853081-21.838862-24.265403-43.677725-53.383886-60.663507 0-43.677725-4.853081-77.649288-16.985782-106.767772-9.706161-24.265403-24.265403-43.677725-41.251184-55.810426 2.42654-2.42654 4.853081-4.853081 7.279621-9.706161 2.42654-4.853081 2.42654-9.706161 2.42654-16.985782 16.985782 9.706161 31.545023 4.853081 41.251184-9.706161 7.279621-9.706161 14.559242-26.691943 26.691943-55.810426 9.706161-19.412322 26.691943-33.971564 53.383886-41.251184 14.559242-4.853081 36.398104-7.279621 60.663507-9.706161 7.279621-2.42654 14.559242-4.853081 24.265403-7.279621 118.900473 106.767772 194.123221 262.066348 194.123221 434.350707C1164.739326 657.69352533 902.672978 917.33333333 582.369663 917.33333333 259.639808 917.33333333 0 657.69352533 0 334.96367033 0 157.82623133000004 80.075829 0.10111432999997305 203.829382-106.66665766999995z"  horiz-adv-x="1165" />

    
    <glyph glyph-name="computerprotection" unicode="&#58939;" d="M447.984 170.68c0-11.812 9.562-21.376 21.344-21.376s21.328 9.562 21.328 21.376c0 11.75-9.546 21.312-21.328 21.312s-21.344-9.562-21.344-21.312zM1023.876 538.118c0 6.828-5.562 12.422-12.376 12.454-17.376 0.656-42.876 2.516-72.844 7.438V767.992c0 11.782-9.532 21.328-21.344 21.328H21.328C9.546 789.32 0 779.774 0 767.992v-640c0-11.782 9.546-21.312 21.328-21.312h266.704l-18.14-85.376h-9.078c-11.782 0-21.328-9.532-21.328-21.312s9.546-21.312 21.328-21.312H704.97l-0.032 0.062c2.126 0.156 4.188 0.812 6 2.062l2 1.312C858.062 83.18 1015.188 281.18 1024 535.946l-0.124 2.172zM896 746.664v-180c-59.312 14.39-127.468 41.25-183.562 91.25l-2.032 1.126 0.094 0.376a12.952 12.952 0 0 1-6.562 1.906c-2.968-0.032-5.938-1.204-8.25-3.282-101.688-90.672-242.954-105.344-298.938-107.47-7.078-0.032-12.594-5.626-12.64-12.454l-0.126-3.204c4.094-112.312 36.968-213.546 84.89-300.234H42.656V746.664H896zM42.656 191.992H494.36a778.622 778.622 0 0 1 29.562-42.688H42.656v42.688z m270.844-170.688l18.14 85.376h226.484c27.5-32 56.626-60.562 86-85.376H313.5zM704 28.242c-68.688 51-131.5 119.282-178.406 194.126-29.11 46.5-52.218 95.468-68.688 145.64-15.218 46.282-24.844 93.876-28.718 141.812 30.89 2.704 69.984 8.422 112.296 20.172 63.266 17.546 118.14 44.234 163.516 79.468 45.376-35.25 100.25-61.954 163.562-79.5 42.25-11.688 81.312-17.406 112.188-20.126C962.312 292.96 830.376 122.148 704 28.242zM704.188 490.664c-11.75 0-21.312-9.562-21.312-21.344V170.68c0-11.812 9.562-21.376 21.312-21.376 11.812 0 21.344 9.562 21.344 21.376V469.32c0 11.782-9.532 21.344-21.344 21.344z"  horiz-adv-x="1024" />

    


  </font>
</defs>
</svg>
